<?xml version="1.0" encoding="UTF-8" standalone="no"?><svg width="223" height="37" viewBox="0 0 223 37" fill="none" xmlns="http://www.w3.org/2000/svg">
<path d="M11.7511 7.84338C16.54 7.84338 22.0534 11.425 22.0534 18.6286C22.0534 26.1139 16.54 29.5346 11.7511 29.5346C8.5316 29.5346 6.64016 27.7639 6.35846 27.0395V36.7784H0V24.6651V8.20557H6.35846V10.1373C6.64016 9.69458 8.5316 7.84338 11.7511 7.84338ZM10.8255 23.9407C13.562 23.9407 15.8961 22.0896 15.8961 18.6286C15.8961 15.2884 13.562 13.4372 10.8255 13.4372C8.20966 13.4372 6.07676 15.2482 6.07676 18.6286C6.07676 22.1298 8.20966 23.9407 10.8255 23.9407ZM31.8728 0.680054V6.03243H25.5143V0.680054H31.8728ZM31.8728 8.20557V29.1321H25.5143V8.20557H31.8728ZM51.0689 29.1321L46.7226 23.0151L42.4166 29.1321H35.1325L43.0605 18.3872L35.9374 8.20557H43.1409L46.7226 13.7994L50.3445 8.20557H57.5481L50.3848 18.3872L58.353 29.1321H51.0689ZM71.9955 7.84338C76.7442 7.84338 83.3844 11.425 82.0563 20.8822H67.448C68.1723 23.0554 70.0638 24.1822 72.5991 24.1822C75.1747 24.1822 75.9796 23.6188 77.4283 23.0151L80.9295 26.3956C79.0783 28.2065 76.5832 29.5346 72.3577 29.5346C67.1663 29.5346 60.9688 25.9529 60.9688 18.7493C60.9688 11.425 67.2467 7.84338 71.9955 7.84338ZM71.9955 13.2762C70.1845 13.2762 68.3333 14.3226 67.5285 16.4152H76.4222C75.7784 14.3226 73.8064 13.2762 71.9955 13.2762ZM92.0367 0.680054V29.1321H85.6782V0.680054H92.0367ZM106.444 7.84338C110.267 7.84338 113.486 9.45312 115.458 12.8336L110.629 15.1274C109.583 14.2421 108.738 13.4372 106.524 13.4372C104.11 13.4372 101.655 15.2884 101.655 18.7091C101.655 22.0895 104.11 23.8603 106.524 23.8603C108.738 23.8603 109.583 23.1359 110.629 22.2505L115.539 24.5444C113.486 27.9248 110.347 29.4541 106.444 29.4541C101.776 29.4541 95.4976 26.1139 95.4976 18.7091C95.4976 11.425 101.776 7.84338 106.444 7.84338ZM129.181 7.84338C133.93 7.84338 140.208 11.425 140.208 18.7493C140.208 26.1139 133.93 29.5346 129.181 29.5346C124.433 29.5346 118.155 26.1139 118.155 18.7493C118.155 11.425 124.433 7.84338 129.181 7.84338ZM129.181 13.4372C126.767 13.4372 124.312 15.2884 124.312 18.7493C124.312 22.0895 126.767 23.9407 129.181 23.9407C131.596 23.9407 134.091 22.0895 134.091 18.7493C134.091 15.2884 131.596 13.4372 129.181 13.4372ZM151.315 29.4541C147.412 29.4541 143.428 26.8383 143.428 20.1981V8.20557H149.786V19.7554C149.786 22.9347 150.873 23.9407 152.885 23.9407C155.742 23.9407 157.392 21.164 157.794 19.9566V8.20557H164.153V29.1321H157.794V25.5102C157.392 26.5163 155.259 29.4541 151.315 29.4541ZM174.616 0.680054V29.1321H168.258V0.680054H174.616ZM189.104 7.84338C193.853 7.84338 200.493 11.425 199.165 20.8822H184.556C185.281 23.0554 187.172 24.1822 189.707 24.1822C192.283 24.1822 193.088 23.6188 194.537 23.0151L198.038 26.3956C196.187 28.2065 193.692 29.5346 189.466 29.5346C184.275 29.5346 178.077 25.9529 178.077 18.7493C178.077 11.425 184.355 7.84338 189.104 7.84338ZM189.104 13.2762C187.293 13.2762 185.442 14.3226 184.637 16.4152H193.531C192.887 14.3226 190.915 13.2762 189.104 13.2762ZM212.767 7.84338C217.516 7.84338 224.156 11.425 222.828 20.8822H208.219C208.944 23.0554 210.835 24.1822 213.371 24.1822C215.946 24.1822 216.751 23.6188 218.2 23.0151L221.701 26.3956C219.85 28.2065 217.355 29.5346 213.129 29.5346C207.938 29.5346 201.74 25.9529 201.74 18.7493C201.74 11.425 208.018 7.84338 212.767 7.84338ZM212.767 13.2762C210.956 13.2762 209.105 14.3226 208.3 16.4152H217.194C216.55 14.3226 214.578 13.2762 212.767 13.2762Z" fill="black"/>
</svg>
